# xmcd
#
# Track frame offsets:
#	150
#	19785
#	38715
#	56542
#	74614
#	91529
#	105797
#	126497
#	147614
#	166679
#	181215
#	210389
#
# Disc length: 3124 seconds
#
# Revision: 1
# Processed by: cddbd v1.5.2PL0 Copyright (c) Steve Scherf et al.
# Submitted via: audiograbber 1.83.01
#
DISCID=9a0c320c
DTITLE=Gretchen Peters - Burnt Toast and Offerings
DYEAR=2007
DGENRE=Country
TTITLE0=Ghost
TTITLE1=Sunday Morning up and down my street
TTITLE2=Summer People
TTITLE3=Jezebel
TTITLE4=Thirsty
TTITLE5=England Blues
TTITLE6=The Lady of the House
TTITLE7=One for my Baby
TTITLE8=The Way You Move Me
TTITLE9=This Town
TTITLE10=Breakfast at our House
TTITLE11=To Say Goodbye
EXTD=
EXTT0=
EXTT1=
EXTT2=
EXTT3=
EXTT4=
EXTT5=
EXTT6=
EXTT7=
EXTT8=
EXTT9=
EXTT10=
EXTT11=
PLAYORDER=
